<?xml version="1.0" encoding="UTF-8"?>
<svg width="228px" height="106px" viewBox="0 0 228 106" version="1.1" xmlns="http://www.w3.org/2000/svg" xmlns:xlink="http://www.w3.org/1999/xlink">
    <title>Group 5</title>
    <g id="full" stroke="none" stroke-width="1" fill="none" fill-rule="evenodd">
        <g id="Success-page" transform="translate(-613.000000, -216.000000)">
            <g id="Group-5" transform="translate(613.000000, 216.000000)">
                <g id="709510" transform="translate(103.000000, 55.500000)" fill="#4CB944" fill-rule="nonzero" stroke="#4CB944" stroke-width="0.5">
                    <path d="M9.94719978,1.39989997 C9.79655978,1.24899997 9.55213979,1.24873997 9.40149979,1.39925997 L4.77163989,6.01689987 L3.10119993,4.20263991 C2.95685993,4.04595991 2.71281994,4.03579991 2.55587994,4.18011991 C2.39905995,4.3244599 2.38901995,4.5686199 2.53335994,4.72543989 L4.4758799,6.83505985 C4.5470199,6.91237985 4.6465799,6.95727984 4.75155989,6.95945984 C4.75437989,6.95957984 4.75709989,6.95957984 4.75979989,6.95957984 C4.86181989,6.95957984 4.95995989,6.91905985 5.03225989,6.84701985 L9.94643978,1.94571996 C10.0974598,1.79521996 10.0977198,1.55079997 9.94719978,1.39989997 Z" id="Path"></path>
                    <path d="M9.85405978,4.73405989 C9.64089978,4.73405989 9.46813979,4.90681989 9.46813979,5.11999989 C9.46813979,7.51765983 7.51765983,9.46813979 5.11999989,9.46813979 C2.72247994,9.46813979 0.771859983,7.51765983 0.771859983,5.11999989 C0.771859983,2.72247994 2.72247994,0.771859983 5.11999989,0.771859983 C5.33315988,0.771859983 5.50593988,0.599099987 5.50593988,0.385939991 C5.50593988,0.172759996 5.33315988,0 5.11999989,0 C2.29679995,0 0,2.29679995 0,5.11999989 C0,7.94307982 2.29679995,10.2399998 5.11999989,10.2399998 C7.94307982,10.2399998 10.2399998,7.94307982 10.2399998,5.11999989 C10.2399998,4.90683989 10.0672398,4.73405989 9.85405978,4.73405989 Z" id="Path"></path>
                </g>
                <circle id="Oval" fill="#FFFFFF" cx="110" cy="60.5" r="35"></circle>
                <circle id="Oval-Copy" fill="#FFFFFF" cx="112" cy="15" r="2"></circle>
                <circle id="Oval-Copy-4" fill="#E8453C" cx="142.5" cy="72" r="3.5"></circle>
                <circle id="Oval-Copy-5" fill="#FABB2D" cx="3.5" cy="51" r="3.5"></circle>
                <circle id="Oval-Copy-6" fill="#6B8DFF" cx="58.5" cy="103" r="2.5"></circle>
                <polygon id="Star" fill="#FABB2D" transform="translate(200.500000, 87.000000) rotate(-20.000000) translate(-200.500000, -87.000000) " points="200.5 89 198.148859 90.236068 198.597887 87.618034 196.695774 85.763932 199.324429 85.381966 200.5 83 201.675571 85.381966 204.304226 85.763932 202.402113 87.618034 202.851141 90.236068"></polygon>
                <polygon id="Star-Copy-2" fill="#FFFFFF" transform="translate(77.500000, 81.000000) rotate(-20.000000) translate(-77.500000, -81.000000) " points="77.5 82.25 76.0305369 83.0225425 76.3111794 81.3862712 75.1223587 80.2274575 76.7652684 79.9887288 77.5 78.5 78.2347316 79.9887288 79.8776413 80.2274575 78.6888206 81.3862712 78.9694631 83.0225425"></polygon>
                <polygon id="Star-Copy-6" fill="#E8453C" transform="translate(222.500000, 33.000000) rotate(-20.000000) translate(-222.500000, -33.000000) " points="222.5 35 220.148859 36.236068 220.597887 33.618034 218.695774 31.763932 221.324429 31.381966 222.5 29 223.675571 31.381966 226.304226 31.763932 224.402113 33.618034 224.851141 36.236068"></polygon>
                <polygon id="Star-Copy" fill="#FFFFFF" transform="translate(104.500000, 24.000000) rotate(-20.000000) translate(-104.500000, -24.000000) " points="104.5 25.25 103.030537 26.0225425 103.311179 24.3862712 102.122359 23.2274575 103.765268 22.9887288 104.5 21.5 105.234732 22.9887288 106.877641 23.2274575 105.688821 24.3862712 105.969463 26.0225425"></polygon>
                <polygon id="Star-Copy-3" fill="#6B8DFF" transform="translate(162.500000, 37.000000) rotate(-20.000000) translate(-162.500000, -37.000000) " points="162.5 38.25 161.030537 39.0225425 161.311179 37.3862712 160.122359 36.2274575 161.765268 35.9887288 162.5 34.5 163.234732 35.9887288 164.877641 36.2274575 163.688821 37.3862712 163.969463 39.0225425"></polygon>
                <polygon id="Star-Copy-7" fill="#6B8DFF" transform="translate(24.500000, 74.000000) rotate(-20.000000) translate(-24.500000, -74.000000) " points="24.5 75.25 23.0305369 76.0225425 23.3111794 74.3862712 22.1223587 73.2274575 23.7652684 72.9887288 24.5 71.5 25.2347316 72.9887288 26.8776413 73.2274575 25.6888206 74.3862712 25.9694631 76.0225425"></polygon>
                <circle id="Oval-Copy-7" fill="#E8453C" cx="145.5" cy="11" r="1.5"></circle>
                <circle id="Oval-Copy-8" fill="#FABB2D" cx="136" cy="46.5" r="1"></circle>
                <circle id="Oval-Copy-12" fill="#3BA757" cx="63" cy="73.5" r="2"></circle>
                <circle id="Oval-Copy-9" fill="#6B8DFF" cx="88" cy="1.5" r="1"></circle>
                <circle id="Oval-Copy-16" fill="#6B8DFF" cx="23" cy="19.5" r="1"></circle>
                <circle id="Oval-Copy-13" fill="#6B8DFF" cx="105.5" cy="104" r="1.5"></circle>
                <circle id="Oval-Copy-2" fill="#FFFFFF" cx="83" cy="35.5" r="2"></circle>
                <circle id="Oval-Copy-11" stroke="#FFFFFF" cx="174" cy="100.5" r="3.5"></circle>
                <circle id="Oval-Copy-14" stroke="#FFFFFF" cx="40" cy="48.5" r="1.5"></circle>
                <circle id="Oval-Copy-19" fill="#3BA757" transform="translate(122.000000, 28.500000) scale(-1, -1) translate(-122.000000, -28.500000) " cx="122" cy="28.5" r="3"></circle>
                <circle id="Oval-Copy-10" fill="#E8453C" cx="97" cy="95.5" r="4"></circle>
                <circle id="Oval-Copy-21" fill="#E8453C" cx="138" cy="98.5" r="1"></circle>
                <circle id="Oval-Copy-15" fill="#FFFFFF" cx="170" cy="97.5" r="2"></circle>
                <circle id="Oval-Copy-3" fill="#3BA757" cx="63" cy="21.5" r="3"></circle>
                <circle id="Oval-Copy-18" fill="#3BA757" cx="185" cy="57.5" r="3"></circle>
                <polyline id="Path-5" stroke="#2EC986" stroke-width="5.4" points="97 59.8076923 106.45 69.5 124 51.5"></polyline>
            </g>
        </g>
    </g>
</svg>